<?xml version="1.0" encoding="UTF-8" standalone="no"?>
<!DOCTYPE svg PUBLIC "-//W3C//DTD SVG 1.1//EN"
 "http://www.w3.org/Graphics/SVG/1.1/DTD/svg11.dtd">
<!-- Generated by graphviz version 2.47.0 (20210316.0004)
 -->
<!-- Title: dependencies Pages: 1 -->
<svg width="3260pt" height="284pt"
 viewBox="0.00 0.00 3260.00 284.00" xmlns="http://www.w3.org/2000/svg" xmlns:xlink="http://www.w3.org/1999/xlink">
<g id="graph0" class="graph" transform="scale(1 1) rotate(0) translate(4 280)">
<title>dependencies</title>
<polygon fill="white" stroke="transparent" points="-4,4 -4,-280 3256,-280 3256,4 -4,4"/>
<text text-anchor="start" x="1605.01" y="-42.4" font-family="sans-serif" font-weight="bold" font-size="14.00">Legend</text>
<polygon fill="#ffffb3" stroke="transparent" points="1392,-10 1392,-30 1412,-30 1412,-10 1392,-10"/>
<text text-anchor="start" x="1415.63" y="-15.4" font-family="sans-serif" font-size="14.00"> &#160;Declarations</text>
<polygon fill="#8dd3c7" stroke="transparent" points="1505,-10 1505,-30 1525,-30 1525,-10 1505,-10"/>
<text text-anchor="start" x="1528.73" y="-15.4" font-family="sans-serif" font-size="14.00"> &#160;Module</text>
<polygon fill="#80b1d3" stroke="transparent" points="1591,-10 1591,-30 1611,-30 1611,-10 1591,-10"/>
<text text-anchor="start" x="1614.78" y="-15.4" font-family="sans-serif" font-size="14.00"> &#160;Bootstrap</text>
<polygon fill="#fdb462" stroke="transparent" points="1688,-10 1688,-30 1708,-30 1708,-10 1688,-10"/>
<text text-anchor="start" x="1711.67" y="-15.4" font-family="sans-serif" font-size="14.00"> &#160;Providers</text>
<polygon fill="#fb8072" stroke="transparent" points="1784,-10 1784,-30 1804,-30 1804,-10 1784,-10"/>
<text text-anchor="start" x="1807.73" y="-15.4" font-family="sans-serif" font-size="14.00"> &#160;Exports</text>
<g id="clust1" class="cluster">
<title>cluster_AppModule</title>
<polygon fill="none" stroke="black" stroke-dasharray="1,5" points="8,-70 8,-268 3244,-268 3244,-70 8,-70"/>
</g>
<g id="clust21" class="cluster">
<title>cluster_AppModule_providers</title>
<polygon fill="none" stroke="black" points="3074,-78 3074,-130 3236,-130 3236,-78 3074,-78"/>
</g>
<g id="clust18" class="cluster">
<title>cluster_AppModule_imports</title>
<polygon fill="none" stroke="black" points="2922,-78 2922,-130 3066,-130 3066,-78 2922,-78"/>
</g>
<g id="clust20" class="cluster">
<title>cluster_AppModule_bootstrap</title>
<polygon fill="none" stroke="black" points="1727,-208 1727,-260 1851,-260 1851,-208 1727,-208"/>
</g>
<g id="clust2" class="cluster">
<title>cluster_AppModule_declarations</title>
<polygon fill="none" stroke="black" points="16,-78 16,-130 2914,-130 2914,-78 16,-78"/>
</g>
<!-- AppComponent -->
<g id="node1" class="node">
<title>AppComponent</title>
<polygon fill="#ffffb3" stroke="black" points="2905.94,-122 2800.06,-122 2800.06,-86 2905.94,-86 2905.94,-122"/>
<text text-anchor="middle" x="2853" y="-99.8" font-family="Times,serif" font-size="14.00">AppComponent</text>
</g>
<!-- AppModule -->
<g id="node16" class="node">
<title>AppModule</title>
<polygon fill="#8dd3c7" stroke="black" points="1830.66,-187 1827.66,-191 1806.66,-191 1803.66,-187 1747.34,-187 1747.34,-151 1830.66,-151 1830.66,-187"/>
<text text-anchor="middle" x="1789" y="-164.8" font-family="Times,serif" font-size="14.00">AppModule</text>
</g>
<!-- AppComponent&#45;&gt;AppModule -->
<g id="edge1" class="edge">
<title>AppComponent&#45;&gt;AppModule</title>
<path fill="none" stroke="black" d="M2853,-122.28C2853,-143.32 2853,-175 2853,-175 2853,-175 1840.71,-175 1840.71,-175"/>
<polygon fill="black" stroke="black" points="1840.71,-171.5 1830.71,-175 1840.71,-178.5 1840.71,-171.5"/>
</g>
<!-- BathroomsComponent -->
<g id="node2" class="node">
<title>BathroomsComponent</title>
<polygon fill="#ffffb3" stroke="black" points="2782.27,-122 2639.73,-122 2639.73,-86 2782.27,-86 2782.27,-122"/>
<text text-anchor="middle" x="2711" y="-99.8" font-family="Times,serif" font-size="14.00">BathroomsComponent</text>
</g>
<!-- BathroomsComponent&#45;&gt;AppModule -->
<g id="edge2" class="edge">
<title>BathroomsComponent&#45;&gt;AppModule</title>
<path fill="none" stroke="black" d="M2711,-122.31C2711,-142.15 2711,-171 2711,-171 2711,-171 1840.71,-171 1840.71,-171"/>
<polygon fill="black" stroke="black" points="1840.71,-167.5 1830.71,-171 1840.71,-174.5 1840.71,-167.5"/>
</g>
<!-- CommercialComponent -->
<g id="node3" class="node">
<title>CommercialComponent</title>
<polygon fill="#ffffb3" stroke="black" points="2621.04,-122 2470.96,-122 2470.96,-86 2621.04,-86 2621.04,-122"/>
<text text-anchor="middle" x="2546" y="-99.8" font-family="Times,serif" font-size="14.00">CommercialComponent</text>
</g>
<!-- CommercialComponent&#45;&gt;AppModule -->
<g id="edge3" class="edge">
<title>CommercialComponent&#45;&gt;AppModule</title>
<path fill="none" stroke="black" d="M2546,-122.22C2546,-140.83 2546,-167 2546,-167 2546,-167 1840.78,-167 1840.78,-167"/>
<polygon fill="black" stroke="black" points="1840.78,-163.5 1830.78,-167 1840.78,-170.5 1840.78,-163.5"/>
</g>
<!-- InitialViewComponent -->
<g id="node4" class="node">
<title>InitialViewComponent</title>
<polygon fill="#ffffb3" stroke="black" points="2452.59,-122 2307.41,-122 2307.41,-86 2452.59,-86 2452.59,-122"/>
<text text-anchor="middle" x="2380" y="-99.8" font-family="Times,serif" font-size="14.00">InitialViewComponent</text>
</g>
<!-- InitialViewComponent&#45;&gt;AppModule -->
<g id="edge4" class="edge">
<title>InitialViewComponent&#45;&gt;AppModule</title>
<path fill="none" stroke="black" d="M2380,-122.02C2380,-139.37 2380,-163 2380,-163 2380,-163 1841.03,-163 1841.03,-163"/>
<polygon fill="black" stroke="black" points="1841.03,-159.5 1831.03,-163 1841.03,-166.5 1841.03,-159.5"/>
</g>
<!-- LoginComponent -->
<g id="node5" class="node">
<title>LoginComponent</title>
<polygon fill="#ffffb3" stroke="black" points="2289.28,-122 2174.72,-122 2174.72,-86 2289.28,-86 2289.28,-122"/>
<text text-anchor="middle" x="2232" y="-99.8" font-family="Times,serif" font-size="14.00">LoginComponent</text>
</g>
<!-- LoginComponent&#45;&gt;AppModule -->
<g id="edge5" class="edge">
<title>LoginComponent&#45;&gt;AppModule</title>
<path fill="none" stroke="black" d="M2232,-122.01C2232,-138.05 2232,-159 2232,-159 2232,-159 1840.68,-159 1840.68,-159"/>
<polygon fill="black" stroke="black" points="1840.68,-155.5 1830.68,-159 1840.68,-162.5 1840.68,-155.5"/>
</g>
<!-- MatApprovedPickerRenderComponent -->
<g id="node6" class="node">
<title>MatApprovedPickerRenderComponent</title>
<polygon fill="#ffffb3" stroke="black" points="2157.05,-122 1920.95,-122 1920.95,-86 2157.05,-86 2157.05,-122"/>
<text text-anchor="middle" x="2039" y="-99.8" font-family="Times,serif" font-size="14.00">MatApprovedPickerRenderComponent</text>
</g>
<!-- MatApprovedPickerRenderComponent&#45;&gt;AppModule -->
<g id="edge6" class="edge">
<title>MatApprovedPickerRenderComponent&#45;&gt;AppModule</title>
<path fill="none" stroke="black" d="M2039,-122.12C2039,-136.78 2039,-155 2039,-155 2039,-155 1840.84,-155 1840.84,-155"/>
<polygon fill="black" stroke="black" points="1840.84,-151.5 1830.84,-155 1840.84,-158.5 1840.84,-151.5"/>
</g>
<!-- MatContractPickerRenderComponent -->
<g id="node7" class="node">
<title>MatContractPickerRenderComponent</title>
<polygon fill="#ffffb3" stroke="black" points="1903.28,-122 1674.72,-122 1674.72,-86 1903.28,-86 1903.28,-122"/>
<text text-anchor="middle" x="1789" y="-99.8" font-family="Times,serif" font-size="14.00">MatContractPickerRenderComponent</text>
</g>
<!-- MatContractPickerRenderComponent&#45;&gt;AppModule -->
<g id="edge7" class="edge">
<title>MatContractPickerRenderComponent&#45;&gt;AppModule</title>
<path fill="none" stroke="black" d="M1789,-122.11C1789,-122.11 1789,-140.99 1789,-140.99"/>
<polygon fill="black" stroke="black" points="1785.5,-140.99 1789,-150.99 1792.5,-140.99 1785.5,-140.99"/>
</g>
<!-- MatModulesPickerRenderComponent -->
<g id="node8" class="node">
<title>MatModulesPickerRenderComponent</title>
<polygon fill="#ffffb3" stroke="black" points="1656.57,-122 1427.43,-122 1427.43,-86 1656.57,-86 1656.57,-122"/>
<text text-anchor="middle" x="1542" y="-99.8" font-family="Times,serif" font-size="14.00">MatModulesPickerRenderComponent</text>
</g>
<!-- MatModulesPickerRenderComponent&#45;&gt;AppModule -->
<g id="edge8" class="edge">
<title>MatModulesPickerRenderComponent&#45;&gt;AppModule</title>
<path fill="none" stroke="black" d="M1542,-122.12C1542,-136.78 1542,-155 1542,-155 1542,-155 1737.1,-155 1737.1,-155"/>
<polygon fill="black" stroke="black" points="1737.1,-158.5 1747.1,-155 1737.1,-151.5 1737.1,-158.5"/>
</g>
<!-- MatPermissionsPickerRenderComponent -->
<g id="node9" class="node">
<title>MatPermissionsPickerRenderComponent</title>
<polygon fill="#ffffb3" stroke="black" points="1409.74,-122 1162.26,-122 1162.26,-86 1409.74,-86 1409.74,-122"/>
<text text-anchor="middle" x="1286" y="-99.8" font-family="Times,serif" font-size="14.00">MatPermissionsPickerRenderComponent</text>
</g>
<!-- MatPermissionsPickerRenderComponent&#45;&gt;AppModule -->
<g id="edge9" class="edge">
<title>MatPermissionsPickerRenderComponent&#45;&gt;AppModule</title>
<path fill="none" stroke="black" d="M1286,-122.01C1286,-138.05 1286,-159 1286,-159 1286,-159 1736.98,-159 1736.98,-159"/>
<polygon fill="black" stroke="black" points="1736.98,-162.5 1746.98,-159 1736.98,-155.5 1736.98,-162.5"/>
</g>
<!-- MatProfilesPickerRenderComponent -->
<g id="node10" class="node">
<title>MatProfilesPickerRenderComponent</title>
<polygon fill="#ffffb3" stroke="black" points="1143.62,-122 920.38,-122 920.38,-86 1143.62,-86 1143.62,-122"/>
<text text-anchor="middle" x="1032" y="-99.8" font-family="Times,serif" font-size="14.00">MatProfilesPickerRenderComponent</text>
</g>
<!-- MatProfilesPickerRenderComponent&#45;&gt;AppModule -->
<g id="edge10" class="edge">
<title>MatProfilesPickerRenderComponent&#45;&gt;AppModule</title>
<path fill="none" stroke="black" d="M1032,-122.02C1032,-139.37 1032,-163 1032,-163 1032,-163 1737.22,-163 1737.22,-163"/>
<polygon fill="black" stroke="black" points="1737.22,-166.5 1747.22,-163 1737.22,-159.5 1737.22,-166.5"/>
</g>
<!-- MatServicesPickerRenderComponent -->
<g id="node11" class="node">
<title>MatServicesPickerRenderComponent</title>
<polygon fill="#ffffb3" stroke="black" points="901.99,-122 674.01,-122 674.01,-86 901.99,-86 901.99,-122"/>
<text text-anchor="middle" x="788" y="-99.8" font-family="Times,serif" font-size="14.00">MatServicesPickerRenderComponent</text>
</g>
<!-- MatServicesPickerRenderComponent&#45;&gt;AppModule -->
<g id="edge11" class="edge">
<title>MatServicesPickerRenderComponent&#45;&gt;AppModule</title>
<path fill="none" stroke="black" d="M788,-122.22C788,-140.83 788,-167 788,-167 788,-167 1737.26,-167 1737.26,-167"/>
<polygon fill="black" stroke="black" points="1737.26,-170.5 1747.26,-167 1737.26,-163.5 1737.26,-170.5"/>
</g>
<!-- MatStatusPickerRenderComponent -->
<g id="node12" class="node">
<title>MatStatusPickerRenderComponent</title>
<polygon fill="#ffffb3" stroke="black" points="656.29,-122 441.71,-122 441.71,-86 656.29,-86 656.29,-122"/>
<text text-anchor="middle" x="549" y="-99.8" font-family="Times,serif" font-size="14.00">MatStatusPickerRenderComponent</text>
</g>
<!-- MatStatusPickerRenderComponent&#45;&gt;AppModule -->
<g id="edge12" class="edge">
<title>MatStatusPickerRenderComponent&#45;&gt;AppModule</title>
<path fill="none" stroke="black" d="M549,-122.31C549,-142.15 549,-171 549,-171 549,-171 1737.03,-171 1737.03,-171"/>
<polygon fill="black" stroke="black" points="1737.03,-174.5 1747.03,-171 1737.03,-167.5 1737.03,-174.5"/>
</g>
<!-- ServicesComponent -->
<g id="node13" class="node">
<title>ServicesComponent</title>
<polygon fill="#ffffb3" stroke="black" points="423.25,-122 294.75,-122 294.75,-86 423.25,-86 423.25,-122"/>
<text text-anchor="middle" x="359" y="-99.8" font-family="Times,serif" font-size="14.00">ServicesComponent</text>
</g>
<!-- ServicesComponent&#45;&gt;AppModule -->
<g id="edge13" class="edge">
<title>ServicesComponent&#45;&gt;AppModule</title>
<path fill="none" stroke="black" d="M359,-122.28C359,-143.32 359,-175 359,-175 359,-175 1736.98,-175 1736.98,-175"/>
<polygon fill="black" stroke="black" points="1736.98,-178.5 1746.98,-175 1736.98,-171.5 1736.98,-178.5"/>
</g>
<!-- UsersComponent -->
<g id="node14" class="node">
<title>UsersComponent</title>
<polygon fill="#ffffb3" stroke="black" points="276.7,-122 163.3,-122 163.3,-86 276.7,-86 276.7,-122"/>
<text text-anchor="middle" x="220" y="-99.8" font-family="Times,serif" font-size="14.00">UsersComponent</text>
</g>
<!-- UsersComponent&#45;&gt;AppModule -->
<g id="edge14" class="edge">
<title>UsersComponent&#45;&gt;AppModule</title>
<path fill="none" stroke="black" d="M220,-122.16C220,-144.35 220,-179 220,-179 220,-179 1737.03,-179 1737.03,-179"/>
<polygon fill="black" stroke="black" points="1737.03,-182.5 1747.03,-179 1737.03,-175.5 1737.03,-182.5"/>
</g>
<!-- WastesComponent -->
<g id="node15" class="node">
<title>WastesComponent</title>
<polygon fill="#ffffb3" stroke="black" points="145.76,-122 24.24,-122 24.24,-86 145.76,-86 145.76,-122"/>
<text text-anchor="middle" x="85" y="-99.8" font-family="Times,serif" font-size="14.00">WastesComponent</text>
</g>
<!-- WastesComponent&#45;&gt;AppModule -->
<g id="edge15" class="edge">
<title>WastesComponent&#45;&gt;AppModule</title>
<path fill="none" stroke="black" d="M85,-122.32C85,-145.66 85,-183 85,-183 85,-183 1737.3,-183 1737.3,-183"/>
<polygon fill="black" stroke="black" points="1737.3,-186.5 1747.3,-183 1737.3,-179.5 1737.3,-186.5"/>
</g>
<!-- AppComponent  -->
<g id="node18" class="node">
<title>AppComponent </title>
<polygon fill="#80b1d3" stroke="black" points="1843.44,-252 1734.56,-252 1734.56,-216 1843.44,-216 1843.44,-252"/>
<text text-anchor="middle" x="1789" y="-229.8" font-family="Times,serif" font-size="14.00">AppComponent </text>
</g>
<!-- AppModule&#45;&gt;AppComponent  -->
<g id="edge17" class="edge">
<title>AppModule&#45;&gt;AppComponent </title>
<path fill="none" stroke="black" stroke-dasharray="1,5" d="M1789,-187.11C1789,-187.11 1789,-205.99 1789,-205.99"/>
<polygon fill="black" stroke="black" points="1785.5,-205.99 1789,-215.99 1792.5,-205.99 1785.5,-205.99"/>
</g>
<!-- AppRoutingModule -->
<g id="node17" class="node">
<title>AppRoutingModule</title>
<polygon fill="#8dd3c7" stroke="black" points="3058.27,-122 3055.27,-126 3034.27,-126 3031.27,-122 2929.73,-122 2929.73,-86 3058.27,-86 3058.27,-122"/>
<text text-anchor="middle" x="2994" y="-99.8" font-family="Times,serif" font-size="14.00">AppRoutingModule</text>
</g>
<!-- AppRoutingModule&#45;&gt;AppModule -->
<g id="edge16" class="edge">
<title>AppRoutingModule&#45;&gt;AppModule</title>
<path fill="none" stroke="black" d="M2994,-122.16C2994,-144.35 2994,-179 2994,-179 2994,-179 1840.83,-179 1840.83,-179"/>
<polygon fill="black" stroke="black" points="1840.83,-175.5 1830.83,-179 1840.83,-182.5 1840.83,-175.5"/>
</g>
<!-- AuthInterceptor -->
<g id="node19" class="node">
<title>AuthInterceptor</title>
<ellipse fill="#fdb462" stroke="black" cx="3155" cy="-104" rx="72.91" ry="18"/>
<text text-anchor="middle" x="3155" y="-99.8" font-family="Times,serif" font-size="14.00">AuthInterceptor</text>
</g>
<!-- AuthInterceptor&#45;&gt;AppModule -->
<g id="edge18" class="edge">
<title>AuthInterceptor&#45;&gt;AppModule</title>
<path fill="none" stroke="black" d="M3155,-122.32C3155,-145.66 3155,-183 3155,-183 3155,-183 1841,-183 1841,-183"/>
<polygon fill="black" stroke="black" points="1841,-179.5 1831,-183 1841,-186.5 1841,-179.5"/>
</g>
</g>
</svg>
